<?xml version="1.0" standalone="no"?>
<!DOCTYPE svg PUBLIC "-//W3C//DTD SVG 20010904//EN"
 "http://www.w3.org/TR/2001/REC-SVG-20010904/DTD/svg10.dtd">
<svg version="1.0" xmlns="http://www.w3.org/2000/svg"
 width="32.000000pt" height="32.000000pt" viewBox="0 0 32.000000 32.000000"
 preserveAspectRatio="xMidYMid meet">

<g transform="translate(0.000000,32.000000) scale(0.100000,-0.100000)"
fill="#000000" stroke="none">
<path d="M0 160 l0 -160 160 0 160 0 0 160 0 160 -160 0 -160 0 0 -160z m132
37 c15 13 18 14 18 2 0 -8 -5 -20 -12 -27 -8 -8 -8 -15 2 -27 15 -18 5 -34
-12 -17 -9 9 -15 9 -25 0 -19 -15 -29 -2 -13 17 10 12 10 19 2 27 -7 7 -12 19
-12 27 0 13 3 13 17 -2 16 -15 18 -15 35 0z m60 -37 c-4 -30 -22 -43 -22 -16
0 8 -3 21 -6 30 -4 11 0 16 13 16 16 0 19 -5 15 -30z m54 18 c5 -8 2 -9 -9 -5
-16 6 -20 -1 -15 -20 1 -5 9 -7 16 -5 8 2 11 -1 7 -7 -9 -16 -35 -13 -41 4
-13 34 24 63 42 33z"/>
</g>
</svg>
